<?xml version="1.0" standalone="no"?>
<!DOCTYPE svg PUBLIC "-//W3C//DTD SVG 20010904//EN"
 "http://www.w3.org/TR/2001/REC-SVG-20010904/DTD/svg10.dtd">
<svg version="1.0" xmlns="http://www.w3.org/2000/svg"
 width="196.000000pt" height="196.000000pt" viewBox="0 0 196.000000 196.000000"
 preserveAspectRatio="xMidYMid meet">
<metadata>
Created by potrace 1.11, written by Peter Selinger 2001-2013
</metadata>
<g transform="translate(0.000000,196.000000) scale(0.100000,-0.100000)"
fill="#000000" stroke="none">
<path d="M71 1437 c-13 -6 -34 -25 -45 -40 -20 -28 -21 -40 -24 -405 -3 -416
-2 -420 61 -466 28 -21 34 -21 917 -21 883 0 889 0 917 21 63 46 64 50 61 466
-3 365 -4 377 -24 405 -11 15 -32 34 -45 40 -19 10 -226 13 -909 13 -683 0
-890 -3 -909 -13z m1279 -167 l0 -60 -60 0 -60 0 0 53 c0 30 3 57 7 60 3 4 30
7 60 7 l53 0 0 -60z m262 -15 c-2 -25 0 -45 5 -45 5 0 19 20 31 45 22 45 35
52 60 36 17 -10 12 -103 -5 -109 -10 -3 -11 8 -7 42 8 58 -5 59 -31 4 -21 -45
-46 -58 -70 -38 -25 21 -17 110 10 110 9 0 11 -13 7 -45z m-262 -185 l0 -61
-57 3 -58 3 -3 58 -3 57 61 0 60 0 0 -60z m370 40 c0 -5 9 -10 20 -10 11 0 20
-7 20 -15 0 -8 -9 -15 -20 -15 -16 0 -20 -7 -20 -30 0 -16 -4 -30 -10 -30 -5
0 -10 14 -10 30 0 29 -2 30 -45 30 -37 0 -45 -3 -45 -18 0 -10 5 -23 12 -30
16 -16 1 -29 -20 -16 -21 13 -28 60 -11 80 7 9 30 14 60 14 27 0 49 5 49 10 0
6 5 10 10 10 6 0 10 -4 10 -10z m-1442 -143 l3 -117 44 0 45 0 0 104 c0 113 4
136 26 136 11 0 14 -25 14 -125 0 -143 -1 -145 -89 -145 -76 0 -81 9 -81 151
0 109 2 120 18 117 15 -3 17 -18 20 -121z m370 111 c16 -16 15 -83 0 -96 -7
-5 -23 -12 -35 -14 -21 -3 -21 -4 13 -61 37 -62 42 -87 20 -87 -8 0 -33 34
-55 75 -23 41 -46 75 -51 75 -5 0 -10 -33 -12 -72 -2 -57 -6 -73 -18 -73 -12
0 -15 23 -18 133 l-3 132 74 0 c43 0 78 -5 85 -12z m120 -111 l3 -117 64 0
c51 0 65 -3 65 -15 0 -12 -16 -15 -85 -15 l-85 0 0 136 c0 124 2 135 18 132
15 -3 17 -18 20 -121z m582 -87 l0 -61 -57 3 -58 3 -3 58 -3 57 61 0 60 0 0
-60z m368 48 c-3 -8 -26 -14 -56 -16 -41 -2 -52 -7 -52 -20 1 -33 26 -52 69
-52 22 0 41 -4 41 -10 0 -6 -30 -10 -70 -10 -40 0 -70 4 -70 10 0 6 5 10 10
10 7 0 7 6 0 19 -13 26 -13 54 2 69 17 17 131 16 126 0z m50 -170 c-3 -7 -16
-14 -29 -16 -22 -3 -25 -7 -21 -33 6 -43 -12 -59 -69 -59 -57 0 -69 14 -66 78
l1 42 94 0 c70 0 93 -3 90 -12z m-418 -68 l0 -60 -60 0 -60 0 0 53 c0 30 3 57
7 60 3 4 30 7 60 7 l53 0 0 -60z"/>
<path d="M530 1030 c0 -31 0 -31 48 -28 43 3 47 5 47 28 0 23 -4 25 -47 28
-48 3 -48 3 -48 -28z"/>
<path d="M1614 716 c-8 -33 2 -46 35 -46 38 0 56 22 41 49 -16 31 -68 29 -76
-3z"/>
</g>
</svg>
